<?xml version="1.0" encoding="UTF-8" standalone="no"?>
<!DOCTYPE svg PUBLIC "-//W3C//DTD SVG 1.1//EN"
 "http://www.w3.org/Graphics/SVG/1.1/DTD/svg11.dtd">
<!-- Generated by graphviz version 2.42.4 (0)
 -->
<!-- Title: DiplomaArchitecture Pages: 1 -->
<svg width="1545pt" height="408pt"
 viewBox="0.00 0.00 1545.00 408.00" xmlns="http://www.w3.org/2000/svg" xmlns:xlink="http://www.w3.org/1999/xlink">
<g id="graph0" class="graph" transform="scale(1 1) rotate(0) translate(4 404)">
<title>DiplomaArchitecture</title>
<polygon fill="white" stroke="transparent" points="-4,4 -4,-404 1541,-404 1541,4 -4,4"/>
<text text-anchor="middle" x="768.5" y="-387.2" font-family="DejaVu Sans" font-size="11.00">Diploma RF monitoring platform – architecture</text>
<g id="clust1" class="cluster">
<title>cluster_native</title>
<polygon fill="none" stroke="black" points="8,-246 8,-372 729,-372 729,-246 8,-246"/>
<text text-anchor="middle" x="368.5" y="-359.2" font-family="DejaVu Sans" font-size="11.00">Debian host – native hardware layer</text>
</g>
<g id="clust2" class="cluster">
<title>cluster_docker</title>
<polygon fill="none" stroke="black" points="573,-46 573,-238 1499,-238 1499,-46 573,-46"/>
<text text-anchor="middle" x="1036" y="-225.2" font-family="DejaVu Sans" font-size="11.00">Docker Compose – portable application layer</text>
</g>
<!-- spectran -->
<g id="node1" class="node">
<title>spectran</title>
<path fill="none" stroke="black" d="M129,-344C129,-344 28,-344 28,-344 22,-344 16,-338 16,-332 16,-332 16,-320 16,-320 16,-314 22,-308 28,-308 28,-308 129,-308 129,-308 135,-308 141,-314 141,-320 141,-320 141,-332 141,-332 141,-338 135,-344 129,-344"/>
<text text-anchor="middle" x="78.5" y="-329" font-family="DejaVu Sans" font-size="10.00">Aaronia SPECTRAN V6</text>
<text text-anchor="middle" x="78.5" y="-318" font-family="DejaVu Sans" font-size="10.00">(hardware not tested)</text>
</g>
<!-- aaronia -->
<g id="node2" class="node">
<title>aaronia</title>
<path fill="none" stroke="black" d="M267,-344C267,-344 190,-344 190,-344 184,-344 178,-338 178,-332 178,-332 178,-320 178,-320 178,-314 184,-308 190,-308 190,-308 267,-308 267,-308 273,-308 279,-314 279,-320 279,-320 279,-332 279,-332 279,-338 273,-344 267,-344"/>
<text text-anchor="middle" x="228.5" y="-329" font-family="DejaVu Sans" font-size="10.00">Aaronia RTSA API</text>
<text text-anchor="middle" x="228.5" y="-318" font-family="DejaVu Sans" font-size="10.00">+ isolated probe</text>
</g>
<!-- spectran&#45;&gt;aaronia -->
<g id="edge1" class="edge">
<title>spectran&#45;&gt;aaronia</title>
<path fill="none" stroke="black" d="M141.41,-326C150.18,-326 159.18,-326 167.9,-326"/>
<polygon fill="black" stroke="black" points="167.98,-329.5 177.98,-326 167.98,-322.5 167.98,-329.5"/>
</g>
<!-- rf -->
<g id="node6" class="node">
<title>rf</title>
<path fill="none" stroke="black" d="M442,-295.5C442,-295.5 328,-295.5 328,-295.5 322,-295.5 316,-289.5 316,-283.5 316,-283.5 316,-266.5 316,-266.5 316,-260.5 322,-254.5 328,-254.5 328,-254.5 442,-254.5 442,-254.5 448,-254.5 454,-260.5 454,-266.5 454,-266.5 454,-283.5 454,-283.5 454,-289.5 448,-295.5 442,-295.5"/>
<text text-anchor="middle" x="385" y="-283.5" font-family="DejaVu Sans" font-size="10.00">C++ rf&#45;agent</text>
<text text-anchor="middle" x="385" y="-272.5" font-family="DejaVu Sans" font-size="10.00">central producer</text>
<text text-anchor="middle" x="385" y="-261.5" font-family="DejaVu Sans" font-size="10.00">mock / replay / recording</text>
</g>
<!-- aaronia&#45;&gt;rf -->
<g id="edge2" class="edge">
<title>aaronia&#45;&gt;rf</title>
<path fill="none" stroke="black" d="M279.24,-309.58C289.74,-306.11 301.03,-302.39 312.17,-298.71"/>
<polygon fill="black" stroke="black" points="313.49,-301.96 321.89,-295.5 311.3,-295.31 313.49,-301.96"/>
</g>
<!-- usrp -->
<g id="node3" class="node">
<title>usrp</title>
<path fill="none" stroke="black" d="M127.5,-290C127.5,-290 29.5,-290 29.5,-290 23.5,-290 17.5,-284 17.5,-278 17.5,-278 17.5,-266 17.5,-266 17.5,-260 23.5,-254 29.5,-254 29.5,-254 127.5,-254 127.5,-254 133.5,-254 139.5,-260 139.5,-266 139.5,-266 139.5,-278 139.5,-278 139.5,-284 133.5,-290 127.5,-290"/>
<text text-anchor="middle" x="78.5" y="-275" font-family="DejaVu Sans" font-size="10.00">Ettus USRP</text>
<text text-anchor="middle" x="78.5" y="-264" font-family="DejaVu Sans" font-size="10.00">(hardware not tested)</text>
</g>
<!-- uhd -->
<g id="node4" class="node">
<title>uhd</title>
<path fill="none" stroke="black" d="M265.5,-290C265.5,-290 191.5,-290 191.5,-290 185.5,-290 179.5,-284 179.5,-278 179.5,-278 179.5,-266 179.5,-266 179.5,-260 185.5,-254 191.5,-254 191.5,-254 265.5,-254 265.5,-254 271.5,-254 277.5,-260 277.5,-266 277.5,-266 277.5,-278 277.5,-278 277.5,-284 271.5,-290 265.5,-290"/>
<text text-anchor="middle" x="228.5" y="-275" font-family="DejaVu Sans" font-size="10.00">UHD driver</text>
<text text-anchor="middle" x="228.5" y="-264" font-family="DejaVu Sans" font-size="10.00">+ isolated probe</text>
</g>
<!-- usrp&#45;&gt;uhd -->
<g id="edge3" class="edge">
<title>usrp&#45;&gt;uhd</title>
<path fill="none" stroke="black" d="M139.7,-272C149.34,-272 159.3,-272 168.9,-272"/>
<polygon fill="black" stroke="black" points="169.14,-275.5 179.14,-272 169.14,-268.5 169.14,-275.5"/>
</g>
<!-- uhd&#45;&gt;rf -->
<g id="edge4" class="edge">
<title>uhd&#45;&gt;rf</title>
<path fill="none" stroke="black" d="M277.54,-272.93C286.54,-273.11 296.17,-273.29 305.82,-273.48"/>
<polygon fill="black" stroke="black" points="305.79,-276.98 315.86,-273.68 305.93,-269.98 305.79,-276.98"/>
</g>
<!-- sdrangel -->
<g id="node5" class="node">
<title>sdrangel</title>
<path fill="none" stroke="black" d="M709,-295.5C709,-295.5 604,-295.5 604,-295.5 598,-295.5 592,-289.5 592,-283.5 592,-283.5 592,-266.5 592,-266.5 592,-260.5 598,-254.5 604,-254.5 604,-254.5 709,-254.5 709,-254.5 715,-254.5 721,-260.5 721,-266.5 721,-266.5 721,-283.5 721,-283.5 721,-289.5 715,-295.5 709,-295.5"/>
<text text-anchor="middle" x="656.5" y="-283.5" font-family="DejaVu Sans" font-size="10.00">sdrangelsrv</text>
<text text-anchor="middle" x="656.5" y="-272.5" font-family="DejaVu Sans" font-size="10.00">REST control plane</text>
<text text-anchor="middle" x="656.5" y="-261.5" font-family="DejaVu Sans" font-size="10.00">IQ data plane: skeleton</text>
</g>
<!-- rf&#45;&gt;sdrangel -->
<g id="edge5" class="edge">
<title>rf&#45;&gt;sdrangel</title>
<path fill="none" stroke="black" stroke-dasharray="5,2" d="M454.01,-275C492.88,-275 541.67,-275 581.5,-275"/>
<polygon fill="black" stroke="black" points="581.69,-278.5 591.69,-275 581.69,-271.5 581.69,-278.5"/>
<text text-anchor="middle" x="517.5" y="-277.8" font-family="DejaVu Sans" font-size="9.00">control</text>
</g>
<!-- ingest -->
<g id="node7" class="node">
<title>ingest</title>
<path fill="none" stroke="black" d="M720,-202C720,-202 593,-202 593,-202 587,-202 581,-196 581,-190 581,-190 581,-178 581,-178 581,-172 587,-166 593,-166 593,-166 720,-166 720,-166 726,-166 732,-172 732,-178 732,-178 732,-190 732,-190 732,-196 726,-202 720,-202"/>
<text text-anchor="middle" x="656.5" y="-187" font-family="DejaVu Sans" font-size="10.00">spectrum&#45;ingest</text>
<text text-anchor="middle" x="656.5" y="-176" font-family="DejaVu Sans" font-size="10.00">validate + bounded fan&#45;out</text>
</g>
<!-- rf&#45;&gt;ingest -->
<g id="edge6" class="edge">
<title>rf&#45;&gt;ingest</title>
<path fill="none" stroke="black" d="M446.82,-254.46C490.12,-239.84 548.17,-220.24 592.05,-205.43"/>
<polygon fill="black" stroke="black" points="593.39,-208.66 601.75,-202.15 591.15,-202.03 593.39,-208.66"/>
<text text-anchor="middle" x="517.5" y="-247.8" font-family="DejaVu Sans" font-size="9.00">SpectrumFrame WS</text>
</g>
<!-- files -->
<g id="node14" class="node">
<title>files</title>
<polygon fill="none" stroke="black" points="1537,-36 1534,-40 1513,-40 1510,-36 1307,-36 1307,0 1537,0 1537,-36"/>
<text text-anchor="middle" x="1422" y="-21" font-family="DejaVu Sans" font-size="10.00">Host filesystem</text>
<text text-anchor="middle" x="1422" y="-10" font-family="DejaVu Sans" font-size="10.00">recordings / uploads / Kismet / ML / backups</text>
</g>
<!-- rf&#45;&gt;files -->
<g id="edge13" class="edge">
<title>rf&#45;&gt;files</title>
<path fill="none" stroke="black" d="M396.23,-254.2C420.15,-207.89 484.5,-96.12 573,-42 604.94,-22.47 618.06,-25 655.5,-25 655.5,-25 655.5,-25 1181,-25 1218.53,-25 1259.35,-24.13 1296.5,-23.01"/>
<polygon fill="black" stroke="black" points="1296.99,-26.5 1306.87,-22.69 1296.77,-19.5 1296.99,-26.5"/>
</g>
<!-- web -->
<g id="node13" class="node">
<title>web</title>
<path fill="none" stroke="black" d="M1018,-178C1018,-178 831,-178 831,-178 825,-178 819,-172 819,-166 819,-166 819,-154 819,-154 819,-148 825,-142 831,-142 831,-142 1018,-142 1018,-142 1024,-142 1030,-148 1030,-154 1030,-154 1030,-166 1030,-166 1030,-172 1024,-178 1018,-178"/>
<text text-anchor="middle" x="924.5" y="-163" font-family="DejaVu Sans" font-size="10.00">Nginx + frontend</text>
<text text-anchor="middle" x="924.5" y="-152" font-family="DejaVu Sans" font-size="10.00">Spectrum / RF / Recordings / ML / Status</text>
</g>
<!-- ingest&#45;&gt;web -->
<g id="edge7" class="edge">
<title>ingest&#45;&gt;web</title>
<path fill="none" stroke="black" d="M732.3,-177.25C756.04,-175.11 782.87,-172.69 808.75,-170.35"/>
<polygon fill="black" stroke="black" points="809.35,-173.81 818.99,-169.43 808.72,-166.84 809.35,-173.81"/>
<text text-anchor="middle" x="775.5" y="-177.8" font-family="DejaVu Sans" font-size="9.00">WebSocket</text>
</g>
<!-- backend -->
<g id="node8" class="node">
<title>backend</title>
<path fill="none" stroke="black" d="M1258,-134C1258,-134 1102,-134 1102,-134 1096,-134 1090,-128 1090,-122 1090,-122 1090,-110 1090,-110 1090,-104 1096,-98 1102,-98 1102,-98 1258,-98 1258,-98 1264,-98 1270,-104 1270,-110 1270,-110 1270,-122 1270,-122 1270,-128 1264,-134 1258,-134"/>
<text text-anchor="middle" x="1180" y="-119" font-family="DejaVu Sans" font-size="10.00">FastAPI backend</text>
<text text-anchor="middle" x="1180" y="-108" font-family="DejaVu Sans" font-size="10.00">RF proxy + sessions + ML + RAG</text>
</g>
<!-- db -->
<g id="node9" class="node">
<title>db</title>
<path fill="none" stroke="black" d="M1491,-91.98C1491,-94.06 1460.07,-95.75 1422,-95.75 1383.93,-95.75 1353,-94.06 1353,-91.98 1353,-91.98 1353,-58.02 1353,-58.02 1353,-55.94 1383.93,-54.25 1422,-54.25 1460.07,-54.25 1491,-55.94 1491,-58.02 1491,-58.02 1491,-91.98 1491,-91.98"/>
<path fill="none" stroke="black" d="M1491,-91.98C1491,-89.9 1460.07,-88.21 1422,-88.21 1383.93,-88.21 1353,-89.9 1353,-91.98"/>
<text text-anchor="middle" x="1422" y="-78" font-family="DejaVu Sans" font-size="10.00">PostgreSQL</text>
<text text-anchor="middle" x="1422" y="-67" font-family="DejaVu Sans" font-size="10.00">TimescaleDB + pgvector</text>
</g>
<!-- backend&#45;&gt;db -->
<g id="edge8" class="edge">
<title>backend&#45;&gt;db</title>
<path fill="none" stroke="black" d="M1280.26,-110.29C1283.21,-109.89 1286.13,-109.46 1289,-109 1295.09,-108.03 1318.08,-102.21 1343.22,-95.66"/>
<polygon fill="black" stroke="black" points="1279.63,-106.84 1270.14,-111.55 1280.5,-113.79 1279.63,-106.84"/>
<polygon fill="black" stroke="black" points="1344.14,-99.04 1352.92,-93.12 1342.36,-92.27 1344.14,-99.04"/>
</g>
<!-- mqtt -->
<g id="node11" class="node">
<title>mqtt</title>
<path fill="none" stroke="black" d="M1442.5,-150C1442.5,-150 1401.5,-150 1401.5,-150 1395.5,-150 1389.5,-144 1389.5,-138 1389.5,-138 1389.5,-126 1389.5,-126 1389.5,-120 1395.5,-114 1401.5,-114 1401.5,-114 1442.5,-114 1442.5,-114 1448.5,-114 1454.5,-120 1454.5,-126 1454.5,-126 1454.5,-138 1454.5,-138 1454.5,-144 1448.5,-150 1442.5,-150"/>
<text text-anchor="middle" x="1422" y="-129.5" font-family="DejaVu Sans" font-size="10.00">Mosquitto</text>
</g>
<!-- backend&#45;&gt;mqtt -->
<g id="edge9" class="edge">
<title>backend&#45;&gt;mqtt</title>
<path fill="none" stroke="black" d="M1280.4,-122.63C1314.98,-124.93 1351.92,-127.39 1379.25,-129.22"/>
<polygon fill="black" stroke="black" points="1280.24,-119.11 1270.03,-121.94 1279.77,-126.09 1280.24,-119.11"/>
<polygon fill="black" stroke="black" points="1379.02,-132.71 1389.23,-129.88 1379.49,-125.72 1379.02,-132.71"/>
</g>
<!-- ollama -->
<g id="node12" class="node">
<title>ollama</title>
<path fill="none" stroke="black" d="M1466,-209.5C1466,-209.5 1378,-209.5 1378,-209.5 1372,-209.5 1366,-203.5 1366,-197.5 1366,-197.5 1366,-180.5 1366,-180.5 1366,-174.5 1372,-168.5 1378,-168.5 1378,-168.5 1466,-168.5 1466,-168.5 1472,-168.5 1478,-174.5 1478,-180.5 1478,-180.5 1478,-197.5 1478,-197.5 1478,-203.5 1472,-209.5 1466,-209.5"/>
<text text-anchor="middle" x="1422" y="-197.5" font-family="DejaVu Sans" font-size="10.00">Ollama</text>
<text text-anchor="middle" x="1422" y="-186.5" font-family="DejaVu Sans" font-size="10.00">chat + embeddings</text>
<text text-anchor="middle" x="1422" y="-175.5" font-family="DejaVu Sans" font-size="10.00">optional</text>
</g>
<!-- backend&#45;&gt;ollama -->
<g id="edge11" class="edge">
<title>backend&#45;&gt;ollama</title>
<path fill="none" stroke="black" d="M1240.97,-137.45C1261.78,-144.62 1285.32,-152.46 1307,-159 1322.82,-163.77 1340,-168.52 1356.11,-172.78"/>
<polygon fill="black" stroke="black" points="1241.91,-134.07 1231.31,-134.09 1239.61,-140.68 1241.91,-134.07"/>
<polygon fill="black" stroke="black" points="1355.42,-176.22 1365.98,-175.37 1357.2,-169.45 1355.42,-176.22"/>
</g>
<!-- backend&#45;&gt;files -->
<g id="edge14" class="edge">
<title>backend&#45;&gt;files</title>
<path fill="none" stroke="black" d="M1266.19,-97.91C1274.46,-93.9 1282.26,-88.99 1289,-83 1303.87,-69.78 1291.55,-54.55 1307,-42 1307.08,-41.93 1307.17,-41.86 1307.25,-41.8"/>
<polygon fill="black" stroke="black" points="1309.27,-44.66 1315.42,-36.03 1305.23,-38.94 1309.27,-44.66"/>
</g>
<!-- kismet -->
<g id="node10" class="node">
<title>kismet</title>
<path fill="none" stroke="black" d="M964,-93C964,-93 885,-93 885,-93 879,-93 873,-87 873,-81 873,-81 873,-69 873,-69 873,-63 879,-57 885,-57 885,-57 964,-57 964,-57 970,-57 976,-63 976,-69 976,-69 976,-81 976,-81 976,-87 970,-93 964,-93"/>
<text text-anchor="middle" x="924.5" y="-78" font-family="DejaVu Sans" font-size="10.00">Kismet</text>
<text text-anchor="middle" x="924.5" y="-67" font-family="DejaVu Sans" font-size="10.00">Wi&#45;Fi + Bluetooth</text>
</g>
<!-- kismet&#45;&gt;backend -->
<g id="edge10" class="edge">
<title>kismet&#45;&gt;backend</title>
<path fill="none" stroke="black" d="M976.19,-83.2C1005.91,-88 1044.47,-94.24 1079.99,-99.99"/>
<polygon fill="black" stroke="black" points="1079.48,-103.45 1089.91,-101.59 1080.6,-96.54 1079.48,-103.45"/>
</g>
<!-- kismet&#45;&gt;files -->
<g id="edge15" class="edge">
<title>kismet&#45;&gt;files</title>
<path fill="none" stroke="black" d="M976.18,-70.93C1046.52,-65.07 1177.67,-53.36 1289,-39 1292.9,-38.5 1296.87,-37.97 1300.87,-37.42"/>
<polygon fill="black" stroke="black" points="1301.45,-40.87 1310.87,-36.02 1300.48,-33.94 1301.45,-40.87"/>
</g>
<!-- web&#45;&gt;backend -->
<g id="edge12" class="edge">
<title>web&#45;&gt;backend</title>
<path fill="none" stroke="black" d="M1039.29,-140.25C1052.81,-137.9 1066.54,-135.52 1079.83,-133.21"/>
<polygon fill="black" stroke="black" points="1038.59,-136.82 1029.34,-141.98 1039.79,-143.71 1038.59,-136.82"/>
<polygon fill="black" stroke="black" points="1080.66,-136.62 1089.91,-131.46 1079.46,-129.72 1080.66,-136.62"/>
<text text-anchor="middle" x="1060" y="-140.8" font-family="DejaVu Sans" font-size="9.00">REST</text>
</g>
</g>
</svg>
